<?xml version="1.0" encoding="utf-8" ?><svg xmlns="http://www.w3.org/2000/svg" xmlns:xlink="http://www.w3.org/1999/xlink" width="2628" height="2567" viewBox="0 0 2628 2567"><path fill="#7763FF" transform="scale(3.80318 3.80296)" d="M433.299 72.551C433.005 60.5946 434.843 50.3262 442.207 40.879C454.088 25.6368 469.016 23.7268 487.051 23.9174C501.701 24.0722 512.683 23.8625 525.019 33.4719C531.944 37.8571 538.396 48.3355 540.052 56.1729C542.877 69.5484 541.547 85.3027 541.876 99.0606C542.047 106.189 542.073 115.869 541.581 122.9C541.216 128.128 539.35 135.528 536.578 140.073C538.807 142.368 543.388 146.867 544.898 149.313C559.306 164.519 576.65 190.28 587.009 208.725C618.805 265.338 630.696 334.181 621.401 398.34C620.256 406.243 618.346 417.692 616.302 425.212C624.418 415.356 631.7 404.842 638.072 393.779C656.627 360.907 664.11 321.787 653.768 285.004C646.483 260.015 631.257 238.078 610.391 222.512C603.384 217.356 597.853 214.496 590.312 210.258C591.391 207.424 595.803 198.215 597.284 195.692C613.843 202.365 635.894 220.653 646.679 234.598C695.466 297.678 676.741 379.999 628.357 436.767C625.617 440.046 622.724 443.195 619.688 446.203C616.092 449.721 609.122 455.851 606.7 459.816C604.617 463.228 601.776 471.062 600.093 475.096C597.156 482.116 593.928 489.011 590.418 495.763C570.147 534.775 541.7 568.957 507.016 595.979C444.086 645.492 364.037 667.937 284.532 658.362C203.801 649.24 130.068 608.226 79.75 544.45C29.2196 480.327 6.50863 398.628 16.6985 317.632C23.6223 261.557 45.9799 208.504 81.2811 164.382C86.1302 158.34 97.3303 145.065 103.112 140.532C96.3516 128.515 98.3492 106.564 98.2509 92.9779C98.116 74.3466 95.433 53.3022 109.032 38.5168C117.541 29.265 128.93 24.6389 141.534 24.324C159.393 24.0956 177.501 22.4357 191.475 35.7779C203.614 47.368 204.499 56.9781 205.069 72.3076C215.675 67.7898 231.099 63.0655 242.169 60.1324C259.608 55.5115 278.64 52.9895 296.6 51.5302C300.959 51.3248 305.555 50.236 309.894 50.1772C316.326 50.4954 323.642 49.737 329.997 50.3341C335.59 50.8597 341.153 51.0154 346.668 51.4448C367.051 53.0232 387.2 56.8333 406.752 62.8067C412.86 64.6749 428.09 69.4938 433.299 72.551Z"/><path fill="#681F03" transform="scale(3.80318 3.80296)" d="M525.019 33.4719C531.944 37.8571 538.396 48.3355 540.052 56.1729C542.877 69.5484 541.547 85.3027 541.876 99.0606C542.047 106.189 542.073 115.869 541.581 122.9C541.216 128.128 539.35 135.528 536.578 140.073C538.807 142.368 543.388 146.867 544.898 149.313C542.124 147.495 538.382 142.947 536.067 140.34C537.699 136.175 539.911 130.34 540.206 125.929C540.714 115.51 540.825 104.868 540.584 94.4129C540.255 80.1385 542.252 65.3493 537.671 51.6281C534.87 43.2373 530.269 40.0224 525.192 33.6913L525.019 33.4719Z"/><path fill="#ECEBFE" transform="scale(3.80318 3.80296)" d="M316.935 163.45C431.426 162.085 525.36 253.747 526.772 368.214C528.184 482.68 436.541 576.632 322.05 578.09C207.494 579.55 113.457 487.861 112.044 373.328C110.631 258.796 202.377 164.816 316.935 163.45Z"/><path fill="#211735" transform="scale(3.80318 3.80296)" d="M229.444 252.139C252.828 249.611 273.84 266.499 276.397 289.875C278.954 313.251 262.088 334.279 238.711 336.864C215.292 339.454 194.214 322.556 191.653 299.139C189.092 275.723 206.019 254.67 229.444 252.139Z"/><path fill="#ECEBFE" transform="scale(3.80318 3.80296)" d="M246.623 266.973C253.6 265.676 260.302 270.296 261.57 277.277C262.838 284.258 258.189 290.939 251.202 292.178C244.255 293.41 237.62 288.795 236.359 281.855C235.099 274.915 239.687 268.262 246.623 266.973Z"/><path fill="#211735" transform="scale(3.80318 3.80296)" d="M400.335 252.124C423.705 249.672 444.651 266.593 447.161 289.952C449.67 313.311 432.796 334.293 409.439 336.859C386.001 339.434 364.926 322.493 362.408 299.054C359.889 275.615 376.885 254.585 400.335 252.124Z"/><path fill="#ECEBFE" transform="scale(3.80318 3.80296)" d="M417.737 266.984C424.721 265.879 431.272 270.666 432.339 277.655C433.407 284.644 428.585 291.168 421.589 292.199C414.645 293.223 408.178 288.445 407.118 281.507C406.058 274.57 410.803 268.08 417.737 266.984Z"/><path fill="#7763FF" transform="scale(3.80318 3.80296)" d="M316.203 331.403C329.502 329.629 341.726 338.954 343.527 352.246C345.328 365.538 336.026 377.779 322.735 379.606C309.405 381.439 297.119 372.106 295.313 358.776C293.507 345.446 302.867 333.181 316.203 331.403Z"/><path fill="#211735" transform="scale(3.80318 3.80296)" d="M371.572 390.339C373.174 391.311 375.289 392.876 376.873 393.979L373.556 398.184C368.948 403.494 363.58 408.095 357.626 411.837C340.894 422.432 320.928 424.837 301.777 420.452C286.562 416.969 270.375 407.225 262.016 393.779L266.621 390.579C267.38 390.899 268.811 392.742 269.349 393.462C292.713 424.75 349.979 424.394 371.572 390.339Z"/><path fill="#ECEBFE" transform="scale(3.80318 3.80296)" d="M148.29 77.3944C160.808 76.8769 167.002 77.2776 175.976 86.3856C163.414 92.7945 150.033 101.625 138.681 109.933C133.121 113.959 127.732 118.218 122.53 122.698C121.779 100.103 119.475 78.9305 148.29 77.3944Z"/><path fill="#ECEBFE" transform="scale(3.80318 3.80296)" d="M483.018 77.399C517.177 75.4186 517.629 94.6244 516.205 122.565L505.597 113.989C491.627 103.065 478.08 94.9257 462.815 86.2022C469.469 79.4802 473.729 77.9081 483.018 77.399Z"/></svg>